<?xml version="1.0" encoding="UTF-8"?>
<svg width="783px" height="191px" viewBox="0 0 783 191" version="1.1" xmlns="http://www.w3.org/2000/svg" xmlns:xlink="http://www.w3.org/1999/xlink">
    <title>LogoFull</title>
    <g id="LogoFull" stroke="none" stroke-width="1" fill="none" fill-rule="evenodd">
        <g id="NaniteCMS" transform="translate(17.000000, 4.000000)" fill="#F83E5D" fill-rule="nonzero">
            <g id="Group">
                <path d="M0.00577773211,136.480972 L79.0551775,182 L158,136.551317 L158,45.7144948 L79.1245105,0 L0,45.3172181 L0.00577773211,136.480972 Z M70.0800007,15.4098805 L70.0800007,32.2780106 L89.0962045,32.2780106 L89.0962045,15.3636364 L149.746269,50.4762379 L149.746269,131.050303 L79.644638,171.363636 L9.43863431,130.980936 L9.43283582,50.1109092 L70.0800007,15.4098805 Z" id="Shape"></path>
                <path d="M78.9982467,85.3497603 C90.7232499,85.3497603 100.223881,94.3628852 100.223881,75.0865274 C100.223881,55.8101697 90.7209122,40.1818182 78.9982467,40.1818182 C67.2790879,40.1818182 57.7761194,55.8090264 57.7761194,75.0848125 C57.7761194,94.362885 67.2790878,85.3497603 78.9982467,85.3497603 Z" id="Path"></path>
                <rect id="Rectangle" x="64.8507463" y="34.2727273" width="27.119403" height="4.72727273"></rect>
                <ellipse id="Oval" cx="100.223881" cy="91" rx="3.53731343" ry="3.54545455"></ellipse>
                <ellipse id="Oval" cx="79" cy="91" rx="3.53731343" ry="3.54545455"></ellipse>
                <ellipse id="Oval" cx="57.7761194" cy="91" rx="3.53731343" ry="3.54545455"></ellipse>
                <polygon id="Path" points="116.798687 116.695752 119.20061 141.818182 121.447761 115.179498 105.099797 94.5454545 101.402985 97.269244"></polygon>
                <polygon id="Path" points="42.3804175 116.695752 57.7761194 97.269244 54.0793078 94.5454545 37.7313433 115.17722 39.9767221 141.818182"></polygon>
                <polygon id="Path" points="79.0521383 163.090909 81.358209 96.9090909 76.641791 96.9090909"></polygon>
            </g>
        </g>
        <path d="M211.916016,139 L211.916016,82.7519531 L212.279297,82.6308594 L239.222656,139 L256.357422,139 L256.357422,50.84375 L239.222656,50.84375 L239.222656,107.03125 L238.859375,107.152344 L211.916016,50.84375 L194.660156,50.84375 L194.660156,139 L211.916016,139 Z M279.58363,139 L284.306286,120.291016 L307.556286,120.291016 L312.33949,139 L329.716443,139 L304.952771,50.84375 L287.030896,50.84375 L262.206677,139 L279.58363,139 Z M304.044568,106.425781 L287.818005,106.425781 L295.749646,75.2441406 L296.112927,75.2441406 L304.044568,106.425781 Z M350.82351,139 L350.82351,82.7519531 L351.186792,82.6308594 L378.130151,139 L395.264917,139 L395.264917,50.84375 L378.130151,50.84375 L378.130151,107.03125 L377.76687,107.152344 L350.82351,50.84375 L333.567651,50.84375 L333.567651,139 L350.82351,139 Z M423.758703,139 L423.758703,50.84375 L406.623937,50.84375 L406.623937,139 L423.758703,139 Z M465.330614,139 L465.330614,64.6484375 L485.189989,64.6484375 L485.189989,50.84375 L428.397021,50.84375 L428.397021,64.6484375 L448.135302,64.6484375 L448.135302,139 L465.330614,139 Z M542.564635,139 L542.564635,125.255859 L507.750182,125.255859 L507.750182,100.310547 L537.357604,100.310547 L537.357604,86.5664062 L507.750182,86.5664062 L507.750182,64.6484375 L542.443541,64.6484375 L542.443541,50.84375 L490.494323,50.84375 L490.494323,139 L542.564635,139 Z" id="NANITE" fill="#F83E5D" fill-rule="nonzero"></path>
        <path d="M583.511719,140.271484 C592.634115,140.271484 599.536458,137.809245 604.21875,132.884766 C608.901042,127.960286 611.201823,120.654297 611.121094,110.966797 L611.121094,110.966797 L610.939453,110.603516 L594.349609,110.603516 C594.551432,116.416016 593.834961,120.523112 592.200195,122.924805 C590.56543,125.326497 587.669271,126.527344 583.511719,126.527344 C579.273438,126.527344 576.054362,125.013672 573.854492,121.986328 C571.654622,118.958984 570.554688,114.33724 570.554688,108.121094 L570.554688,108.121094 L570.554688,81.6621094 C570.554688,75.5266927 571.583984,70.9453125 573.642578,67.9179688 C575.701172,64.890625 578.667969,63.3769531 582.542969,63.3769531 C587.063802,63.3769531 590.232422,64.6484375 592.048828,67.1914062 C593.865234,69.734375 594.652344,73.8919271 594.410156,79.6640625 L594.410156,79.6640625 L611,79.6640625 L611.181641,79.3007812 C611.020182,69.4921875 608.547852,62.0852865 603.764648,57.0800781 C598.981445,52.0748698 591.907552,49.5722656 582.542969,49.5722656 C573.703125,49.5722656 566.649414,52.3876953 561.381836,58.0185547 C556.114258,63.6494141 553.480469,71.5709635 553.480469,81.7832031 L553.480469,81.7832031 L553.480469,108.121094 C553.480469,118.373698 556.205078,126.295247 561.654297,131.885742 C567.103516,137.476237 574.389323,140.271484 583.511719,140.271484 Z M635.376599,139 L635.376599,113.388672 L633.862927,79.6035156 L634.226208,79.5429688 L650.876599,139 L662.319958,139 L679.15199,79.0585938 L679.515271,79.1191406 L678.062146,113.388672 L678.062146,139 L695.196911,139 L695.196911,50.84375 L672.734021,50.84375 L656.749646,115.568359 L656.386365,115.568359 L640.58363,50.84375 L618.241833,50.84375 L618.241833,139 L635.376599,139 Z M733.680932,140.271484 C742.11713,140.271484 748.878198,138.111979 753.964135,133.792969 C759.050073,129.473958 761.593042,123.5 761.593042,115.871094 C761.593042,108.484375 759.483992,102.621419 755.265893,98.2822266 C751.047794,93.9430339 744.76101,90.3606771 736.405542,87.5351562 C731.117781,85.234375 727.404239,83.1455078 725.264917,81.2685547 C723.125594,79.3916016 722.055932,77 722.055932,74.09375 C722.055932,70.9453125 723.014591,68.3317057 724.931909,66.2529297 C726.849226,64.1741536 729.52338,63.1347656 732.95437,63.1347656 C736.627547,63.1347656 739.47325,64.3860677 741.491479,66.8886719 C743.509708,69.391276 744.518823,72.6608073 744.518823,76.6972656 L744.518823,76.6972656 L761.22976,76.6972656 L761.350854,76.3339844 C761.512312,68.624349 758.969344,62.2366536 753.721948,57.1708984 C748.474552,52.1051432 741.652937,49.5722656 733.257104,49.5722656 C724.982364,49.5722656 718.180932,51.8427734 712.852807,56.3837891 C707.524682,60.9248047 704.86062,66.8079427 704.86062,74.0332031 C704.86062,81.3391927 707.15131,87.0205078 711.73269,91.0771484 C716.31407,95.1337891 723.186141,98.7565104 732.348901,101.945312 C736.82937,103.882812 739.957625,105.850586 741.733667,107.848633 C743.509708,109.84668 744.397729,112.561198 744.397729,115.992188 C744.397729,119.302083 743.519799,121.925781 741.76394,123.863281 C740.008081,125.800781 737.313745,126.769531 733.680932,126.769531 C729.039005,126.769531 725.567651,125.578776 723.26687,123.197266 C720.966088,120.815755 719.815698,116.900391 719.815698,111.451172 L719.815698,111.451172 L703.044213,111.451172 L702.92312,111.814453 C702.721297,120.977214 705.698185,128.010742 711.853784,132.915039 C718.009383,137.819336 725.285099,140.271484 733.680932,140.271484 Z" id="CMS" fill="#465775" fill-rule="nonzero"></path>
    </g>
</svg>