<?xml version="1.0" encoding="UTF-8"?>
<svg width="191px" height="191px" viewBox="0 0 191 191" version="1.1" xmlns="http://www.w3.org/2000/svg" xmlns:xlink="http://www.w3.org/1999/xlink">
    <title>Logo</title>
    <g id="Logo" stroke="none" stroke-width="1" fill="none" fill-rule="evenodd">
        <g id="NaniteCMS" transform="translate(17.000000, 4.000000)" fill="#F83E5D" fill-rule="nonzero">
            <g id="Group">
                <path d="M0.00577773211,136.480972 L79.0551775,182 L158,136.551317 L158,45.7144948 L79.1245105,0 L0,45.3172181 L0.00577773211,136.480972 Z M70.0800007,15.4098805 L70.0800007,32.2780106 L89.0962045,32.2780106 L89.0962045,15.3636364 L149.746269,50.4762379 L149.746269,131.050303 L79.644638,171.363636 L9.43863431,130.980936 L9.43283582,50.1109092 L70.0800007,15.4098805 Z" id="Shape"></path>
                <path d="M78.9982467,85.3497603 C90.7232499,85.3497603 100.223881,94.3628852 100.223881,75.0865274 C100.223881,55.8101697 90.7209122,40.1818182 78.9982467,40.1818182 C67.2790879,40.1818182 57.7761194,55.8090264 57.7761194,75.0848125 C57.7761194,94.362885 67.2790878,85.3497603 78.9982467,85.3497603 Z" id="Path"></path>
                <rect id="Rectangle" x="64.8507463" y="34.2727273" width="27.119403" height="4.72727273"></rect>
                <ellipse id="Oval" cx="100.223881" cy="91" rx="3.53731343" ry="3.54545455"></ellipse>
                <ellipse id="Oval" cx="79" cy="91" rx="3.53731343" ry="3.54545455"></ellipse>
                <ellipse id="Oval" cx="57.7761194" cy="91" rx="3.53731343" ry="3.54545455"></ellipse>
                <polygon id="Path" points="116.798687 116.695752 119.20061 141.818182 121.447761 115.179498 105.099797 94.5454545 101.402985 97.269244"></polygon>
                <polygon id="Path" points="42.3804175 116.695752 57.7761194 97.269244 54.0793078 94.5454545 37.7313433 115.17722 39.9767221 141.818182"></polygon>
                <polygon id="Path" points="79.0521383 163.090909 81.358209 96.9090909 76.641791 96.9090909"></polygon>
            </g>
        </g>
    </g>
</svg>