<?xml version="1.0" standalone="no"?>
<!DOCTYPE svg PUBLIC "-//W3C//DTD SVG 20010904//EN"
 "http://www.w3.org/TR/2001/REC-SVG-20010904/DTD/svg10.dtd">
<svg version="1.0" xmlns="http://www.w3.org/2000/svg"
 width="573.000000pt" height="573.000000pt" viewBox="0 0 573.000000 573.000000"
 preserveAspectRatio="xMidYMid meet">
<metadata>
Created by potrace 1.14, written by Peter Selinger 2001-2017
</metadata>
<g transform="translate(0.000000,573.000000) scale(0.100000,-0.100000)"
fill="#000000" stroke="none">
<path d="M1692 4932 l-1182 -677 2 -1373 3 -1374 1180 -679 c649 -374 1187
-678 1195 -675 8 2 542 307 1185 678 l1170 674 2 1370 2 1369 -1174 680 c-646
374 -1181 681 -1188 682 -6 2 -544 -302 -1195 -675z m1208 -292 l290 0 2 249
3 249 902 -522 902 -521 -2 -1208 -2 -1208 -1035 -596 c-569 -328 -1044 -598
-1055 -599 -13 -3 -406 218 -1060 595 l-1040 599 -3 1214 -2 1215 902 516 903
516 3 -250 2 -249 290 0z"/>
<path d="M2457 4583 c-4 -3 -7 -37 -7 -75 l0 -68 410 0 410 0 0 75 0 75 -403
0 c-222 0 -407 -3 -410 -7z"/>
<path d="M2781 4394 c-240 -64 -436 -341 -512 -723 -26 -131 -36 -366 -19
-468 21 -134 60 -191 143 -214 45 -12 92 -7 262 28 82 17 152 24 225 24 73 0
143 -7 225 -24 216 -45 268 -44 327 3 66 51 94 189 84 408 -22 497 -241 888
-541 967 -72 18 -123 18 -194 -1z"/>
<path d="M2183 2971 c-69 -43 -63 -152 10 -187 108 -51 208 78 130 166 -37 41
-94 50 -140 21z"/>
<path d="M2828 2974 c-30 -16 -58 -61 -58 -94 0 -53 57 -110 110 -110 34 0 78
28 95 60 8 16 15 38 15 50 0 34 -28 78 -60 95 -36 19 -67 19 -102 -1z"/>
<path d="M3474 2980 c-35 -14 -64 -59 -64 -101 0 -115 162 -148 207 -42 38 92
-51 180 -143 143z"/>
<path d="M1886 2469 c-186 -235 -246 -317 -246 -337 2 -79 68 -775 73 -762 3
8 20 177 38 375 l33 360 223 282 c123 155 225 288 228 296 4 9 -14 29 -49 55
l-54 41 -246 -310z"/>
<path d="M3610 2740 c-29 -22 -55 -41 -57 -44 -3 -3 96 -132 219 -288 123
-156 227 -288 231 -295 6 -9 77 -700 77 -745 0 -6 2 -9 5 -6 3 3 21 183 39
399 l33 394 -185 235 c-102 129 -214 270 -248 312 l-62 77 -52 -39z"/>
<path d="M2810 2618 c1 -182 67 -1878 73 -1885 4 -3 7 25 7 63 0 38 14 449 30
914 16 465 30 880 30 923 l0 77 -70 0 -70 0 0 -92z"/>
</g>
</svg>
